<?xml version="1.0" encoding="UTF-8"?>
<svg id="Layer_1" data-name="Layer 1" xmlns="http://www.w3.org/2000/svg" version="1.1" viewBox="0 0 114.22 81.75">
  <defs>
    <style>
      .cls-1 {
        fill: #231f20;
        stroke-width: 0px;
      }
    </style>
  </defs>
  <path class="cls-1" d="M27.01,23.5c-.22,4.45-1.42,7.89-3.58,10.32-2.16,2.43-5.11,3.65-8.86,3.65-4.29,0-7.54-1.51-9.74-4.54s-3.31-7.45-3.31-13.27,1.14-10.39,3.43-13.51C7.24,3.03,10.53,1.47,14.82,1.47c3.46,0,6.19,1.1,8.21,3.29,2.02,2.19,3.26,5.43,3.74,9.72l-8.06.91c-.26-2.34-.7-4.02-1.34-5.04-.64-1.02-1.55-1.54-2.74-1.54-1.6,0-2.78.85-3.53,2.54-.75,1.7-1.13,4.37-1.13,8.02s.38,6.43,1.15,8.16c.77,1.73,1.98,2.59,3.65,2.59,1.31,0,2.31-.54,3-1.61.69-1.07,1.11-2.74,1.27-5.02h7.97Z"/>
  <path class="cls-1" d="M43.18,37.47c-4.45,0-7.8-1.5-10.06-4.51-2.26-3.01-3.38-7.46-3.38-13.34s1.16-10.46,3.48-13.54c2.32-3.07,5.72-4.61,10.2-4.61s7.8,1.5,10.06,4.51c2.26,3.01,3.38,7.46,3.38,13.34s-1.16,10.46-3.48,13.54c-2.32,3.07-5.72,4.61-10.2,4.61ZM43.28,30.12c1.82,0,3.14-.83,3.94-2.5.8-1.66,1.2-4.4,1.2-8.21s-.4-6.49-1.2-8.14c-.8-1.65-2.1-2.47-3.89-2.47s-3.14.83-3.94,2.5c-.8,1.66-1.2,4.4-1.2,8.21s.4,6.49,1.2,8.14c.8,1.65,2.1,2.47,3.89,2.47Z"/>
  <path class="cls-1" d="M73.95,37.47c-4.45,0-7.8-1.5-10.06-4.51-2.26-3.01-3.38-7.46-3.38-13.34s1.16-10.46,3.48-13.54c2.32-3.07,5.72-4.61,10.2-4.61s7.8,1.5,10.06,4.51c2.26,3.01,3.38,7.46,3.38,13.34s-1.16,10.46-3.48,13.54c-2.32,3.07-5.72,4.61-10.2,4.61ZM74.05,30.12c1.82,0,3.14-.83,3.94-2.5.8-1.66,1.2-4.4,1.2-8.21s-.4-6.49-1.2-8.14c-.8-1.65-2.1-2.47-3.89-2.47s-3.14.83-3.94,2.5c-.8,1.66-1.2,4.4-1.2,8.21s.4,6.49,1.2,8.14c.8,1.65,2.1,2.47,3.89,2.47Z"/>
  <path class="cls-1" d="M92.43,36.6V2.33h8.16v26.98h11.57l-.72,7.3h-19.01Z"/>
  <path class="cls-1" d="M2.67,78.6v-34.27h8.16v26.98h11.57l-.72,7.3H2.67Z"/>
  <path class="cls-1" d="M37.47,79.47c-4.45,0-7.8-1.5-10.06-4.51-2.26-3.01-3.38-7.46-3.38-13.34s1.16-10.46,3.48-13.54c2.32-3.07,5.72-4.61,10.2-4.61s7.8,1.5,10.06,4.51c2.26,3.01,3.38,7.46,3.38,13.34s-1.16,10.46-3.48,13.54c-2.32,3.07-5.72,4.61-10.2,4.61ZM37.57,72.12c1.82,0,3.14-.83,3.94-2.5.8-1.66,1.2-4.4,1.2-8.21s-.4-6.49-1.2-8.14c-.8-1.65-2.1-2.47-3.89-2.47s-3.14.83-3.94,2.5c-.8,1.66-1.2,4.4-1.2,8.21s.4,6.49,1.2,8.14c.8,1.65,2.1,2.47,3.89,2.47Z"/>
  <path class="cls-1" d="M72.94,65.83h-4.13v-6.43h11.66v16.37c-3.39,2.46-7.31,3.7-11.76,3.7s-8.08-1.5-10.42-4.49c-2.34-2.99-3.5-7.43-3.5-13.32s1.16-10.47,3.48-13.56c2.32-3.09,5.72-4.63,10.2-4.63,3.46,0,6.17.91,8.14,2.74,1.97,1.82,3.21,4.58,3.72,8.26l-8.16.86c-.26-1.6-.7-2.78-1.34-3.53-.64-.75-1.5-1.13-2.59-1.13-1.73,0-2.99.86-3.79,2.57-.8,1.71-1.2,4.42-1.2,8.14s.47,6.54,1.42,8.28c.94,1.74,2.46,2.62,4.54,2.62,1.47,0,2.72-.3,3.74-.91v-5.52Z"/>
  <path class="cls-1" d="M97.81,79.47c-4.45,0-7.8-1.5-10.06-4.51-2.26-3.01-3.38-7.46-3.38-13.34s1.16-10.46,3.48-13.54c2.32-3.07,5.72-4.61,10.2-4.61s7.8,1.5,10.06,4.51c2.26,3.01,3.38,7.46,3.38,13.34s-1.16,10.46-3.48,13.54c-2.32,3.07-5.72,4.61-10.2,4.61ZM97.9,72.12c1.82,0,3.14-.83,3.94-2.5.8-1.66,1.2-4.4,1.2-8.21s-.4-6.49-1.2-8.14c-.8-1.65-2.1-2.47-3.89-2.47s-3.14.83-3.94,2.5c-.8,1.66-1.2,4.4-1.2,8.21s.4,6.49,1.2,8.14c.8,1.65,2.1,2.47,3.89,2.47Z"/>
</svg>