<?xml version="1.0" encoding="UTF-8"?>
<svg id="Layer_1" xmlns="http://www.w3.org/2000/svg" version="1.1" viewBox="0 0 162 44">
  <!-- Generator: Adobe Illustrator 29.0.1, SVG Export Plug-In . SVG Version: 2.1.0 Build 192)  -->
  <defs>
    <style>
      .st0 {
        fill: #2d1312;
      }
    </style>
  </defs>
  <path class="st0" d="M30.85,12.38h-9.91v23.78h-6.19V12.38H4.77v-4.53h26.08v4.53Z"/>
  <path class="st0" d="M56.98,12.38h-15.81v7.04h11.89v4.37h-11.89v7.85h16.54v4.53h-22.73V7.85h22v4.53Z"/>
  <path class="st0" d="M62.76,7.85h5.06l9.99,12.58,10.11-12.58h4.81v28.31h-6.19v-18.84l-9.38,11.48-9.22-11.16v18.52h-5.18V7.85Z"/>
  <path class="st0" d="M123.87,16.82c0,5.1-3.48,8.94-9.79,8.94h-8.25v10.39h-6.19V7.85h14.44c6.31,0,9.79,3.88,9.79,8.98ZM112.5,21.35c3.19,0,5.01-1.62,5.01-4.53s-1.82-4.57-5.01-4.57h-6.67v9.1h6.67Z"/>
  <path class="st0" d="M127.02,22c0-8.49,5.94-14.68,15.08-14.68s15.12,6.19,15.12,14.68-6.03,14.68-15.12,14.68-15.08-6.19-15.08-14.68ZM142.11,32.11c5.3,0,8.69-4.04,8.69-10.11s-3.4-10.11-8.69-10.11-8.65,4-8.65,10.11,3.4,10.11,8.65,10.11Z"/>
</svg>