<?xml version="1.0" encoding="utf-8"?>
<!-- Generator: Adobe Illustrator 28.2.0, SVG Export Plug-In . SVG Version: 6.00 Build 0)  -->
<svg version="1.1" id="Layer_1" xmlns="http://www.w3.org/2000/svg" xmlns:xlink="http://www.w3.org/1999/xlink" x="0px" y="0px"
	 viewBox="0 0 159.73 67" style="enable-background:new 0 0 159.73 67;" xml:space="preserve">
<g>
	<path d="M16.44,4.17v35.28h14.1v9.96H4.68V4.17H16.44z"/>
	<path d="M34.38,33.75c0-2.28,0.46-4.41,1.38-6.39c0.92-1.98,2.2-3.7,3.84-5.16c1.64-1.46,3.59-2.61,5.85-3.45
		c2.26-0.84,4.73-1.26,7.41-1.26c2.64,0,5.09,0.41,7.35,1.23c2.26,0.82,4.22,1.96,5.88,3.42c1.66,1.46,2.95,3.2,3.87,5.22
		c0.92,2.02,1.38,4.25,1.38,6.69c0,2.44-0.47,4.67-1.41,6.69c-0.94,2.02-2.23,3.76-3.87,5.22c-1.64,1.46-3.61,2.59-5.91,3.39
		c-2.3,0.8-4.79,1.2-7.47,1.2c-2.64,0-5.08-0.4-7.32-1.2c-2.24-0.8-4.17-1.94-5.79-3.42c-1.62-1.48-2.89-3.25-3.81-5.31
		C34.84,38.56,34.38,36.27,34.38,33.75z M45.84,33.87c0,1.04,0.19,1.99,0.57,2.85c0.38,0.86,0.88,1.61,1.5,2.25
		c0.62,0.64,1.36,1.14,2.22,1.5c0.86,0.36,1.77,0.54,2.73,0.54s1.87-0.18,2.73-0.54c0.86-0.36,1.6-0.86,2.22-1.5
		c0.62-0.64,1.12-1.39,1.5-2.25c0.38-0.86,0.57-1.79,0.57-2.79c0-0.96-0.19-1.87-0.57-2.73c-0.38-0.86-0.88-1.61-1.5-2.25
		c-0.62-0.64-1.36-1.14-2.22-1.5c-0.86-0.36-1.77-0.54-2.73-0.54s-1.87,0.18-2.73,0.54c-0.86,0.36-1.6,0.86-2.22,1.5
		c-0.62,0.64-1.12,1.38-1.5,2.22C46.03,32.01,45.84,32.91,45.84,33.87z"/>
	<path d="M112.02,18.63v28.68c0,1.72-0.1,3.26-0.3,4.62c-0.2,1.36-0.48,2.56-0.84,3.6c-0.48,1.32-1.23,2.55-2.25,3.69
		s-2.25,2.13-3.69,2.97c-1.44,0.84-3.07,1.5-4.89,1.98c-1.82,0.48-3.79,0.72-5.91,0.72c-2.4,0-4.6-0.3-6.6-0.9
		c-2-0.6-3.75-1.43-5.25-2.49c-1.5-1.06-2.73-2.3-3.69-3.72c-0.96-1.42-1.6-2.97-1.92-4.65h12.24c0.76,2.04,2.48,3.06,5.16,3.06
		c2.28,0,4.03-0.64,5.25-1.92c1.22-1.28,1.83-3.06,1.83-5.34v-2.94c-0.8,0.76-1.57,1.39-2.31,1.89c-0.74,0.5-1.49,0.91-2.25,1.23
		c-0.76,0.32-1.56,0.55-2.4,0.69c-0.84,0.14-1.76,0.21-2.76,0.21c-2.2,0-4.22-0.38-6.06-1.14c-1.84-0.76-3.43-1.82-4.77-3.18
		c-1.34-1.36-2.38-2.99-3.12-4.89c-0.74-1.9-1.11-4.01-1.11-6.33c0-2.36,0.4-4.55,1.2-6.57c0.8-2.02,1.89-3.78,3.27-5.28
		c1.38-1.5,3.02-2.68,4.92-3.54c1.9-0.86,3.97-1.29,6.21-1.29c3.64,0,6.7,1.36,9.18,4.08v-3.24H112.02z M87.66,33.87
		c0,1,0.18,1.93,0.54,2.79c0.36,0.86,0.85,1.61,1.47,2.25c0.62,0.64,1.36,1.14,2.22,1.5c0.86,0.36,1.79,0.54,2.79,0.54
		c0.96,0,1.87-0.18,2.73-0.54c0.86-0.36,1.6-0.86,2.22-1.5c0.62-0.64,1.12-1.39,1.5-2.25c0.38-0.86,0.57-1.77,0.57-2.73
		c0-1-0.19-1.92-0.57-2.76c-0.38-0.84-0.89-1.58-1.53-2.22c-0.64-0.64-1.39-1.14-2.25-1.5c-0.86-0.36-1.75-0.54-2.67-0.54
		c-0.96,0-1.86,0.19-2.7,0.57c-0.84,0.38-1.58,0.88-2.22,1.5c-0.64,0.62-1.15,1.35-1.53,2.19C87.85,32.01,87.66,32.91,87.66,33.87z"
		/>
	<path d="M118.2,33.75c0-2.28,0.46-4.41,1.38-6.39c0.92-1.98,2.2-3.7,3.84-5.16c1.64-1.46,3.59-2.61,5.85-3.45
		c2.26-0.84,4.73-1.26,7.41-1.26c2.64,0,5.09,0.41,7.35,1.23c2.26,0.82,4.22,1.96,5.88,3.42c1.66,1.46,2.95,3.2,3.87,5.22
		c0.92,2.02,1.38,4.25,1.38,6.69c0,2.44-0.47,4.67-1.41,6.69c-0.94,2.02-2.23,3.76-3.87,5.22c-1.64,1.46-3.61,2.59-5.91,3.39
		c-2.3,0.8-4.79,1.2-7.47,1.2c-2.64,0-5.08-0.4-7.32-1.2c-2.24-0.8-4.17-1.94-5.79-3.42c-1.62-1.48-2.89-3.25-3.81-5.31
		C118.66,38.56,118.2,36.27,118.2,33.75z M129.66,33.87c0,1.04,0.19,1.99,0.57,2.85c0.38,0.86,0.88,1.61,1.5,2.25
		c0.62,0.64,1.36,1.14,2.22,1.5c0.86,0.36,1.77,0.54,2.73,0.54s1.87-0.18,2.73-0.54c0.86-0.36,1.6-0.86,2.22-1.5
		c0.62-0.64,1.12-1.39,1.5-2.25c0.38-0.86,0.57-1.79,0.57-2.79c0-0.96-0.19-1.87-0.57-2.73c-0.38-0.86-0.88-1.61-1.5-2.25
		c-0.62-0.64-1.36-1.14-2.22-1.5c-0.86-0.36-1.77-0.54-2.73-0.54s-1.87,0.18-2.73,0.54c-0.86,0.36-1.6,0.86-2.22,1.5
		c-0.62,0.64-1.12,1.38-1.5,2.22C129.85,32.01,129.66,32.91,129.66,33.87z"/>
</g>
</svg>
