<?xml version="1.0" encoding="utf-8"?>
<!-- Generator: Adobe Illustrator 27.9.0, SVG Export Plug-In . SVG Version: 6.00 Build 0)  -->
<svg version="1.1" id="logo" xmlns="http://www.w3.org/2000/svg" xmlns:xlink="http://www.w3.org/1999/xlink" x="0px" y="0px"
	 viewBox="0 0 43.36 38.21" style="enable-background:new 0 0 43.36 38.21;" xml:space="preserve">
<style type="text/css">
	.st0{fill:#594A42;}
	.st1{font-family:'Impact';}
	.st2{font-size:37.913px;}
	.st3{fill:#726658;}
	.st4{fill:#9B8579;}
	.st5{fill:none;stroke:#FFFFFF;stroke-linecap:round;stroke-miterlimit:10;}
	.st6{fill:#FFFFFF;}
</style>
<text transform="matrix(1 0 0 1 21.2495 31.1196)" class="st0 st1 st2">B</text>
<text transform="matrix(1 0 0 1 10.3281 31.1196)" class="st3 st1 st2">B</text>
<text transform="matrix(1 0 0 1 -0.4849 31.1196)" class="st4 st1 st2">B</text>
<path class="st5" d="M6.35,31.79c0,0,14.68,2.4,25.31-3.57c3-1.68,5.67-4.03,7.6-7.29"/>
<path class="st6" d="M37.03,19.82c-0.13-0.23-0.48-0.18-0.55,0.07c-0.34,1.18-0.42,2.78,0.6,3.66c0.18,0.15,0.4,0.06,0.49-0.09
	c0.02-0.02,0.05-0.03,0.06-0.05C38.36,22.24,37.64,20.86,37.03,19.82z"/>
<path class="st6" d="M40.93,23.21c0.27,0.09,0.3,0.46,0.05,0.6c-1.15,0.63-2.81,1.08-3.96,0.22c-0.2-0.15-0.15-0.4-0.01-0.53
	c0.02-0.03,0.02-0.05,0.04-0.08C38.1,22.37,39.7,22.81,40.93,23.21z"/>
<path class="st6" d="M35.22,21.88c-0.13-0.23-0.48-0.18-0.55,0.07c-0.34,1.18-0.42,2.78,0.6,3.66c0.18,0.15,0.4,0.06,0.49-0.09
	c0.02-0.02,0.05-0.03,0.06-0.05C36.55,24.3,35.82,22.93,35.22,21.88z"/>
<path class="st6" d="M39.12,25.27c0.27,0.09,0.3,0.46,0.05,0.6c-1.15,0.63-2.81,1.08-3.96,0.22c-0.2-0.15-0.15-0.4-0.01-0.53
	c0.02-0.03,0.02-0.05,0.04-0.08C36.29,24.44,37.89,24.88,39.12,25.27z"/>
<path class="st6" d="M33.23,23.61c-0.11-0.24-0.46-0.23-0.56,0.01c-0.47,1.13-0.73,2.72,0.19,3.71c0.16,0.17,0.39,0.1,0.49-0.04
	c0.02-0.02,0.05-0.02,0.07-0.05C34.29,26.16,33.72,24.71,33.23,23.61z"/>
<path class="st6" d="M36.74,27.41c0.26,0.11,0.24,0.49-0.01,0.6c-1.22,0.49-2.91,0.76-3.96-0.22c-0.18-0.17-0.11-0.42,0.05-0.53
	c0.02-0.02,0.03-0.05,0.05-0.07C34.01,26.26,35.56,26.88,36.74,27.41z"/>
<path class="st6" d="M31.14,25.16c-0.07-0.25-0.42-0.29-0.55-0.07c-0.63,1.05-1.12,2.58-0.36,3.69c0.13,0.19,0.37,0.16,0.49,0.03
	c0.02-0.01,0.05-0.02,0.07-0.04C31.81,27.84,31.46,26.33,31.14,25.16z"/>
<path class="st6" d="M34.04,29.44c0.24,0.15,0.17,0.52-0.1,0.59c-1.28,0.31-2.99,0.32-3.89-0.81c-0.15-0.2-0.04-0.43,0.12-0.52
	c0.02-0.02,0.03-0.05,0.06-0.06C31.52,27.91,32.95,28.75,34.04,29.44z"/>
<path class="st6" d="M40.22,17.64c-0.24,0.28-0.49,0.56-0.73,0.85c-0.22,0.26-0.44,0.52-0.6,0.82c-0.15,0.27-0.26,0.57-0.28,0.9
	c-0.03,0.38,0.06,0.76,0.15,1.12c0,0,0,0,0,0.01c0,0.02,0,0.03,0.01,0.05c0.02,0.07,0.04,0.15,0.07,0.21
	c0.03,0.06,0.08,0.11,0.13,0.13c0.03,0.01,0.06,0.02,0.09,0.01c0.02,0,0.03-0.01,0.05-0.01c0.02,0,0.04,0.01,0.06,0.01
	c0.35-0.04,0.57-0.37,0.79-0.65c0.2-0.27,0.39-0.55,0.54-0.87c0.15-0.33,0.23-0.69,0.23-1.06c0-0.45-0.06-0.91-0.11-1.35
	C40.57,17.61,40.33,17.5,40.22,17.64z"/>
<path class="st6" d="M41.66,18.26c-0.33,0.17-0.67,0.33-1,0.5c-0.3,0.15-0.6,0.31-0.87,0.53c-0.24,0.19-0.46,0.43-0.61,0.72
	c-0.17,0.34-0.24,0.72-0.29,1.09c0,0,0,0,0,0.01c0,0.02-0.01,0.03-0.01,0.05c-0.01,0.07-0.02,0.15-0.01,0.23
	c0,0.06,0.03,0.13,0.07,0.17c0.02,0.02,0.05,0.04,0.08,0.05c0.02,0.01,0.03,0.01,0.05,0.01c0.02,0.01,0.03,0.02,0.05,0.03
	c0.34,0.1,0.67-0.12,0.98-0.3c0.29-0.17,0.57-0.36,0.83-0.6c0.26-0.25,0.48-0.55,0.62-0.9c0.17-0.42,0.29-0.86,0.42-1.29
	C42,18.36,41.82,18.18,41.66,18.26z"/>
<g>
	<path class="st6" d="M3.03,36.57v-2.39h0.81c0.17,0,0.3,0.03,0.41,0.08s0.19,0.13,0.24,0.22c0.05,0.09,0.08,0.19,0.08,0.31
		c0,0.1-0.02,0.19-0.06,0.26s-0.09,0.13-0.16,0.18s-0.12,0.07-0.17,0.08c0.05,0.01,0.1,0.02,0.16,0.05c0.06,0.02,0.12,0.06,0.17,0.1
		s0.1,0.1,0.13,0.18c0.03,0.07,0.05,0.16,0.05,0.27c0,0.17-0.04,0.3-0.12,0.4s-0.19,0.17-0.32,0.21c-0.14,0.04-0.29,0.06-0.45,0.06
		H3.03z M3.36,35.18h0.43c0.07,0,0.14-0.01,0.21-0.04c0.07-0.02,0.12-0.06,0.17-0.12c0.04-0.05,0.07-0.12,0.07-0.21
		c0-0.1-0.02-0.17-0.07-0.22c-0.04-0.05-0.1-0.08-0.17-0.1c-0.07-0.02-0.14-0.03-0.21-0.03H3.36V35.18z M3.36,36.27h0.42
		c0.06,0,0.13,0,0.19-0.01c0.07-0.01,0.13-0.02,0.18-0.05c0.06-0.03,0.1-0.07,0.14-0.12c0.04-0.05,0.05-0.12,0.05-0.21
		c0-0.11-0.03-0.2-0.09-0.26c-0.06-0.06-0.13-0.1-0.21-0.12c-0.08-0.02-0.17-0.03-0.25-0.03H3.36V36.27z"/>
	<path class="st6" d="M5.23,35.9v-1h0.32v0.98c0,0.16,0.03,0.27,0.1,0.34s0.16,0.11,0.28,0.11c0.12,0,0.22-0.03,0.29-0.1
		c0.07-0.06,0.12-0.15,0.15-0.25c0.03-0.1,0.04-0.2,0.04-0.31v-0.77h0.32v1.5c0,0.01,0,0.03,0,0.07c0,0.04,0,0.07,0,0.1H6.43
		l-0.01-0.25c-0.03,0.04-0.06,0.08-0.11,0.12c-0.05,0.04-0.11,0.08-0.18,0.11c-0.07,0.03-0.16,0.05-0.26,0.05
		c-0.22,0-0.38-0.06-0.48-0.19C5.28,36.29,5.23,36.12,5.23,35.9z"/>
	<path class="st6" d="M7.48,36.03v-0.85h-0.3v-0.27h0.3v-0.54H7.8v0.54h0.49v0.27H7.8v0.82c0,0.13,0.02,0.23,0.06,0.28
		c0.04,0.05,0.1,0.08,0.18,0.08c0.06,0,0.11-0.01,0.16-0.03c0.04-0.02,0.08-0.05,0.12-0.09l0.15,0.2c-0.07,0.07-0.14,0.12-0.21,0.15
		c-0.07,0.03-0.16,0.04-0.26,0.04c-0.17,0-0.3-0.05-0.39-0.15C7.52,36.38,7.48,36.23,7.48,36.03z"/>
	<path class="st6" d="M8.95,36.03v-0.85h-0.3v-0.27h0.3v-0.54h0.32v0.54h0.49v0.27H9.27v0.82c0,0.13,0.02,0.23,0.06,0.28
		c0.04,0.05,0.1,0.08,0.18,0.08c0.06,0,0.11-0.01,0.16-0.03c0.04-0.02,0.08-0.05,0.12-0.09l0.15,0.2c-0.07,0.07-0.14,0.12-0.21,0.15
		c-0.07,0.03-0.16,0.04-0.26,0.04c-0.17,0-0.3-0.05-0.39-0.15C8.99,36.38,8.95,36.23,8.95,36.03z"/>
	<path class="st6" d="M11.56,36.13l0.18,0.19c-0.02,0.03-0.07,0.07-0.13,0.11c-0.06,0.05-0.14,0.09-0.24,0.12
		c-0.1,0.04-0.22,0.06-0.36,0.06c-0.17,0-0.32-0.04-0.46-0.11c-0.13-0.08-0.23-0.18-0.31-0.32s-0.11-0.29-0.11-0.47
		c0-0.16,0.04-0.31,0.11-0.44c0.07-0.13,0.17-0.24,0.29-0.31c0.13-0.08,0.27-0.12,0.43-0.12c0.19,0,0.35,0.05,0.47,0.14
		c0.12,0.09,0.21,0.21,0.26,0.36c0.05,0.15,0.08,0.31,0.08,0.48h-1.32c0,0.1,0.03,0.19,0.08,0.26c0.05,0.08,0.12,0.14,0.2,0.18
		s0.17,0.07,0.27,0.07c0.14,0,0.26-0.02,0.35-0.07C11.46,36.23,11.53,36.18,11.56,36.13z M10.48,35.59h0.98
		c-0.01-0.13-0.05-0.24-0.14-0.33c-0.08-0.09-0.2-0.14-0.34-0.14c-0.1,0-0.19,0.02-0.27,0.07c-0.07,0.04-0.13,0.1-0.17,0.17
		S10.48,35.51,10.48,35.59z"/>
	<path class="st6" d="M12.62,36.57H12.3v-1.5c0-0.02,0-0.04,0-0.06s0-0.06,0-0.1h0.31l0.01,0.27c0.03-0.04,0.06-0.08,0.11-0.13
		c0.05-0.04,0.11-0.08,0.18-0.12c0.07-0.03,0.16-0.05,0.26-0.05c0.04,0,0.07,0,0.1,0.01s0.06,0.01,0.08,0.02l-0.07,0.3
		c-0.04-0.02-0.1-0.03-0.17-0.03c-0.09,0-0.17,0.02-0.25,0.07c-0.07,0.05-0.13,0.11-0.17,0.18c-0.04,0.08-0.06,0.16-0.06,0.25V36.57
		z"/>
	<path class="st6" d="M16.14,36.57l-0.23-0.26c-0.08,0.09-0.18,0.16-0.29,0.23c-0.11,0.06-0.25,0.09-0.41,0.09
		c-0.16,0-0.3-0.03-0.41-0.09s-0.2-0.14-0.25-0.24c-0.06-0.1-0.09-0.21-0.09-0.33c0-0.15,0.04-0.28,0.12-0.41s0.21-0.24,0.37-0.36
		l-0.04-0.05c-0.06-0.07-0.1-0.15-0.13-0.22c-0.03-0.08-0.05-0.16-0.05-0.24c0-0.1,0.02-0.19,0.07-0.27
		c0.05-0.08,0.12-0.15,0.22-0.21c0.1-0.05,0.21-0.08,0.34-0.08c0.12,0,0.22,0.02,0.3,0.06c0.08,0.04,0.14,0.09,0.19,0.15
		c0.05,0.06,0.09,0.12,0.12,0.19l-0.24,0.15c-0.06-0.11-0.12-0.18-0.18-0.21c-0.06-0.03-0.12-0.05-0.18-0.05
		c-0.1,0-0.18,0.03-0.23,0.08c-0.05,0.06-0.08,0.12-0.08,0.19c0,0.06,0.02,0.13,0.05,0.19c0.03,0.06,0.08,0.12,0.14,0.19l0.65,0.76
		l0.31-0.4l0.24,0.19l-0.35,0.44l0.44,0.51H16.14z M15.71,36.07l-0.56-0.65c-0.12,0.09-0.21,0.17-0.26,0.25
		c-0.05,0.08-0.08,0.17-0.08,0.27c0,0.1,0.04,0.19,0.11,0.27s0.18,0.11,0.32,0.11c0.11,0,0.2-0.02,0.28-0.07
		C15.58,36.2,15.65,36.14,15.71,36.07z"/>
	<path class="st6" d="M17.84,36.57v-2.39h0.81c0.17,0,0.3,0.03,0.41,0.08s0.19,0.13,0.24,0.22c0.05,0.09,0.08,0.19,0.08,0.31
		c0,0.1-0.02,0.19-0.06,0.26s-0.09,0.13-0.16,0.18s-0.12,0.07-0.17,0.08c0.05,0.01,0.1,0.02,0.16,0.05c0.06,0.02,0.12,0.06,0.17,0.1
		s0.1,0.1,0.13,0.18c0.03,0.07,0.05,0.16,0.05,0.27c0,0.17-0.04,0.3-0.12,0.4s-0.19,0.17-0.32,0.21c-0.14,0.04-0.29,0.06-0.45,0.06
		H17.84z M18.17,35.18h0.43c0.07,0,0.14-0.01,0.21-0.04c0.07-0.02,0.12-0.06,0.17-0.12c0.04-0.05,0.07-0.12,0.07-0.21
		c0-0.1-0.02-0.17-0.07-0.22c-0.04-0.05-0.1-0.08-0.17-0.1c-0.07-0.02-0.14-0.03-0.21-0.03h-0.43V35.18z M18.17,36.27h0.42
		c0.06,0,0.13,0,0.19-0.01c0.07-0.01,0.13-0.02,0.18-0.05c0.06-0.03,0.1-0.07,0.14-0.12c0.04-0.05,0.05-0.12,0.05-0.21
		c0-0.11-0.03-0.2-0.09-0.26c-0.06-0.06-0.13-0.1-0.21-0.12c-0.08-0.02-0.17-0.03-0.25-0.03h-0.44V36.27z"/>
	<path class="st6" d="M20.05,36.57v-2.39h0.32v2.39H20.05z"/>
	<path class="st6" d="M20.96,34.61v-0.36h0.36v0.36H20.96z M20.98,36.57v-1.67h0.32v1.67H20.98z"/>
	<path class="st6" d="M21.82,36.37l0.2-0.21c0.06,0.06,0.13,0.11,0.21,0.14c0.08,0.04,0.18,0.05,0.29,0.05
		c0.11,0,0.2-0.02,0.27-0.05c0.07-0.03,0.11-0.09,0.11-0.16c0-0.05-0.01-0.09-0.04-0.12c-0.03-0.03-0.08-0.06-0.15-0.08
		c-0.07-0.03-0.16-0.05-0.29-0.08c-0.09-0.02-0.17-0.05-0.25-0.09c-0.08-0.04-0.15-0.09-0.2-0.15c-0.05-0.07-0.08-0.15-0.08-0.26
		c0-0.11,0.03-0.2,0.09-0.27s0.15-0.13,0.25-0.17c0.1-0.04,0.21-0.06,0.32-0.06c0.14,0,0.26,0.02,0.37,0.06
		c0.1,0.04,0.19,0.09,0.26,0.16L23,35.29c-0.05-0.05-0.11-0.08-0.19-0.12c-0.07-0.03-0.16-0.05-0.26-0.05
		c-0.1,0-0.19,0.02-0.25,0.05c-0.06,0.03-0.09,0.09-0.09,0.17c0,0.07,0.04,0.12,0.12,0.16c0.08,0.03,0.19,0.07,0.32,0.1
		c0.1,0.02,0.2,0.06,0.28,0.09c0.09,0.04,0.15,0.09,0.21,0.16c0.05,0.07,0.08,0.15,0.08,0.26c0,0.11-0.03,0.2-0.1,0.28
		s-0.15,0.13-0.26,0.17c-0.11,0.04-0.22,0.06-0.34,0.06C22.21,36.62,21.98,36.54,21.82,36.37z"/>
	<path class="st6" d="M23.66,36.37l0.2-0.21c0.06,0.06,0.13,0.11,0.21,0.14c0.08,0.04,0.18,0.05,0.29,0.05
		c0.11,0,0.2-0.02,0.27-0.05c0.07-0.03,0.11-0.09,0.11-0.16c0-0.05-0.01-0.09-0.04-0.12c-0.03-0.03-0.08-0.06-0.15-0.08
		c-0.07-0.03-0.17-0.05-0.29-0.08c-0.09-0.02-0.17-0.05-0.25-0.09c-0.08-0.04-0.15-0.09-0.2-0.15c-0.05-0.07-0.08-0.15-0.08-0.26
		c0-0.11,0.03-0.2,0.09-0.27c0.06-0.07,0.15-0.13,0.25-0.17c0.1-0.04,0.21-0.06,0.32-0.06c0.14,0,0.26,0.02,0.37,0.06
		s0.19,0.09,0.26,0.16l-0.17,0.22c-0.05-0.05-0.11-0.08-0.19-0.12s-0.16-0.05-0.26-0.05c-0.1,0-0.18,0.02-0.25,0.05
		s-0.09,0.09-0.09,0.17c0,0.07,0.04,0.12,0.12,0.16c0.08,0.03,0.19,0.07,0.32,0.1c0.11,0.02,0.2,0.06,0.29,0.09
		c0.08,0.04,0.15,0.09,0.2,0.16c0.05,0.07,0.08,0.15,0.08,0.26c0,0.11-0.03,0.2-0.1,0.28c-0.07,0.08-0.15,0.13-0.26,0.17
		c-0.11,0.04-0.22,0.06-0.34,0.06C24.06,36.62,23.82,36.54,23.66,36.37z"/>
	<path class="st6" d="M26.44,36.57v-2.39h0.81c0.17,0,0.3,0.03,0.41,0.08c0.11,0.05,0.19,0.13,0.24,0.22
		c0.05,0.09,0.08,0.19,0.08,0.31c0,0.1-0.02,0.19-0.06,0.26s-0.09,0.13-0.16,0.18c-0.06,0.04-0.12,0.07-0.17,0.08
		c0.05,0.01,0.1,0.02,0.16,0.05c0.06,0.02,0.12,0.06,0.17,0.1c0.05,0.04,0.1,0.1,0.13,0.18c0.04,0.07,0.05,0.16,0.05,0.27
		c0,0.17-0.04,0.3-0.12,0.4c-0.08,0.1-0.19,0.17-0.32,0.21c-0.13,0.04-0.29,0.06-0.45,0.06H26.44z M26.78,35.18h0.43
		c0.07,0,0.14-0.01,0.21-0.04c0.07-0.02,0.12-0.06,0.17-0.12c0.04-0.05,0.07-0.12,0.07-0.21c0-0.1-0.02-0.17-0.07-0.22
		s-0.1-0.08-0.17-0.1c-0.07-0.02-0.14-0.03-0.21-0.03h-0.43V35.18z M26.78,36.27h0.42c0.06,0,0.13,0,0.19-0.01
		c0.07-0.01,0.13-0.02,0.18-0.05s0.1-0.07,0.14-0.12s0.05-0.12,0.05-0.21c0-0.11-0.03-0.2-0.09-0.26c-0.06-0.06-0.13-0.1-0.21-0.12
		c-0.08-0.02-0.17-0.03-0.25-0.03h-0.44V36.27z"/>
	<path class="st6" d="M29.71,36.57l-0.01-0.2c-0.06,0.08-0.14,0.14-0.25,0.18c-0.1,0.04-0.21,0.06-0.31,0.06
		c-0.09,0-0.18-0.02-0.27-0.05c-0.09-0.03-0.16-0.09-0.22-0.16c-0.06-0.08-0.09-0.18-0.09-0.3c0-0.18,0.06-0.32,0.19-0.43
		s0.31-0.16,0.54-0.16c0.05,0,0.11,0,0.16,0.01c0.06,0,0.11,0.01,0.15,0.01c0.04,0,0.08,0.01,0.09,0.01v-0.06
		c0-0.12-0.04-0.21-0.11-0.27s-0.18-0.08-0.31-0.08c-0.12,0-0.22,0.02-0.3,0.05c-0.08,0.03-0.14,0.07-0.19,0.11l-0.15-0.22
		c0.06-0.05,0.14-0.09,0.25-0.14c0.11-0.04,0.25-0.07,0.43-0.07c0.21,0,0.38,0.05,0.5,0.16c0.12,0.1,0.19,0.25,0.19,0.44v0.97
		c0,0.02,0,0.04,0,0.06s0,0.05,0,0.09H29.71z M29.7,35.97v-0.19c-0.01,0-0.04-0.01-0.08-0.01s-0.09-0.01-0.14-0.01
		s-0.11-0.01-0.16-0.01c-0.12,0-0.21,0.02-0.27,0.05c-0.06,0.03-0.11,0.08-0.13,0.13c-0.02,0.05-0.03,0.1-0.03,0.15
		c0,0.09,0.03,0.16,0.09,0.2c0.06,0.05,0.15,0.07,0.26,0.07c0.08,0,0.16-0.02,0.23-0.06c0.07-0.04,0.13-0.08,0.17-0.14
		C29.67,36.1,29.7,36.04,29.7,35.97z"/>
	<path class="st6" d="M30.59,36.57v-2.39h0.32v1.41l0.7-0.68H32l-0.63,0.62l0.72,1.05h-0.38l-0.57-0.83l-0.23,0.22v0.61H30.59z"/>
	<path class="st6" d="M33.69,36.13l0.18,0.19c-0.02,0.03-0.07,0.07-0.13,0.11c-0.06,0.05-0.14,0.09-0.24,0.12
		c-0.1,0.04-0.22,0.06-0.36,0.06c-0.17,0-0.32-0.04-0.46-0.11c-0.13-0.08-0.23-0.18-0.31-0.32s-0.11-0.29-0.11-0.47
		c0-0.16,0.04-0.31,0.11-0.44c0.07-0.13,0.17-0.24,0.29-0.31c0.13-0.08,0.27-0.12,0.43-0.12c0.19,0,0.35,0.05,0.47,0.14
		c0.12,0.09,0.21,0.21,0.26,0.36s0.08,0.31,0.08,0.48H32.6c0,0.1,0.03,0.19,0.08,0.26c0.05,0.08,0.12,0.14,0.2,0.18
		s0.17,0.07,0.27,0.07c0.14,0,0.26-0.02,0.35-0.07C33.59,36.23,33.65,36.18,33.69,36.13z M32.6,35.59h0.98
		c-0.01-0.13-0.05-0.24-0.14-0.33c-0.08-0.09-0.2-0.14-0.34-0.14c-0.1,0-0.19,0.02-0.26,0.07c-0.07,0.04-0.13,0.1-0.17,0.17
		C32.63,35.44,32.61,35.51,32.6,35.59z"/>
	<path class="st6" d="M34.75,36.57h-0.32v-1.5c0-0.02,0-0.04,0-0.06s0-0.06,0-0.1h0.31l0.01,0.27c0.03-0.04,0.06-0.08,0.11-0.13
		c0.05-0.04,0.11-0.08,0.18-0.12c0.07-0.03,0.16-0.05,0.26-0.05c0.04,0,0.07,0,0.1,0.01s0.06,0.01,0.08,0.02l-0.07,0.3
		c-0.04-0.02-0.1-0.03-0.17-0.03c-0.09,0-0.17,0.02-0.25,0.07c-0.07,0.05-0.13,0.11-0.17,0.18c-0.04,0.08-0.06,0.16-0.06,0.25V36.57
		z"/>
	<path class="st6" d="M35.74,37.21l0.15-0.23c0.02,0.02,0.05,0.04,0.08,0.06s0.07,0.03,0.12,0.03c0.08,0,0.13-0.03,0.17-0.1
		s0.08-0.17,0.14-0.3l0.04-0.11l-0.75-1.65h0.37l0.54,1.26l0.47-1.26h0.35l-0.67,1.62c-0.03,0.07-0.06,0.16-0.1,0.25
		c-0.03,0.09-0.07,0.18-0.12,0.27c-0.05,0.08-0.1,0.15-0.17,0.21s-0.16,0.08-0.26,0.08c-0.08,0-0.15-0.01-0.21-0.03
		C35.84,37.27,35.78,37.24,35.74,37.21z"/>
</g>
</svg>
